<?xml version="1.0" encoding="UTF-8" standalone="no"?>
<!-- Created with Inkscape (http://www.inkscape.org/) -->

<svg
   xmlns:dc="http://purl.org/dc/elements/1.1/"
   xmlns:cc="http://creativecommons.org/ns#"
   xmlns:rdf="http://www.w3.org/1999/02/22-rdf-syntax-ns#"
   xmlns:svg="http://www.w3.org/2000/svg"
   xmlns="http://www.w3.org/2000/svg"
   xmlns:sodipodi="http://sodipodi.sourceforge.net/DTD/sodipodi-0.dtd"
   xmlns:inkscape="http://www.inkscape.org/namespaces/inkscape"
   width="744.09448819"
   height="1052.3622047"
   id="svg2"
   version="1.1"
   inkscape:version="0.48.4 r9939"
   sodipodi:docname="New document 1">
  <defs
     id="defs4" />
  <sodipodi:namedview
     id="base"
     pagecolor="#ffffff"
     bordercolor="#666666"
     borderopacity="1.0"
     inkscape:pageopacity="0.0"
     inkscape:pageshadow="2"
     inkscape:zoom="1.4"
     inkscape:cx="494.66331"
     inkscape:cy="699.50683"
     inkscape:document-units="px"
     inkscape:current-layer="layer1"
     showgrid="false"
     inkscape:window-width="1054"
     inkscape:window-height="1177"
     inkscape:window-x="0"
     inkscape:window-y="21"
     inkscape:window-maximized="0"
     showguides="true"
     inkscape:guide-bbox="true" />
  <metadata
     id="metadata7">
    <rdf:RDF>
      <cc:Work
         rdf:about="">
        <dc:format>image/svg+xml</dc:format>
        <dc:type
           rdf:resource="http://purl.org/dc/dcmitype/StillImage" />
        <dc:title></dc:title>
      </cc:Work>
    </rdf:RDF>
  </metadata>
  <g
     inkscape:label="Layer 1"
     inkscape:groupmode="layer"
     id="layer1">
    <path
       sodipodi:type="arc"
       style="fill:#2b1100;fill-opacity:1;stroke:none"
       id="path2985"
       sodipodi:cx="456.58896"
       sodipodi:cy="424.55237"
       sodipodi:rx="206.57619"
       sodipodi:ry="206.57619"
       d="m 663.16515,424.55237 a 206.57619,206.57619 0 1 1 -413.15238,0 206.57619,206.57619 0 1 1 413.15238,0 z" />
    <path
       style="fill:#ffffff;stroke:#000000"
       d="m 518.20826,245.2503 c -50.44349,-14.9491 -130.78591,-2.15589 -163.64472,19.1929 -42.44833,30.87009 -81.78583,80.23491 -82.83251,131.31983 -4.96658,28.70517 7.23943,93.01821 10.10153,86.87312 5.13494,6.06092 1.43105,-59.34646 10.10153,-87.88327 12.79152,-75.4664 86.24582,-119.00546 135.36044,-131.31984 72.98353,-15.65736 90.66119,-11.86929 90.91373,-18.18274 z"
       id="path3019"
       inkscape:connector-curvature="0"
       sodipodi:nodetypes="ccccccc" />
    <g
       id="g3198"
       style="stroke:#000000">
      <path
         sodipodi:type="arc"
         style="fill:#552200;fill-opacity:1;stroke:#000000"
         id="path2987"
         sodipodi:cx="456.58896"
         sodipodi:cy="424.55237"
         sodipodi:rx="131.82491"
         sodipodi:ry="131.82491"
         d="m 588.41386,424.55237 a 131.82491,131.82491 0 1 1 -263.64981,0 131.82491,131.82491 0 1 1 263.64981,0 z" />
      <g
         id="flowRoot3021"
         style="font-size:40px;font-style:normal;font-weight:normal;line-height:125%;letter-spacing:0px;word-spacing:0px;fill:#2b1100;fill-opacity:1;stroke:#000000;font-family:Sans"
         transform="matrix(4.6201189,0,0,3.9394316,-275.82597,-218.2026)">
        <path
           style="fill:#2b1100;stroke:#000000"
           inkscape:connector-curvature="0"
           id="path3030"
           d="m 149.96094,172.48715 6.44531,0 0,-22.24609 -7.01172,1.40625 0,-3.59375 6.97266,-1.40625 3.94531,0 0,25.83984 6.44531,0 0,3.32032 -16.79687,0 0,-3.32032" />
      </g>
    </g>
    <path
       sodipodi:type="arc"
       style="fill:#ffffff;fill-opacity:1;stroke:none"
       id="path3013"
       sodipodi:cx="312.64221"
       sodipodi:cy="320.00159"
       sodipodi:rx="38.385796"
       sodipodi:ry="38.385796"
       d="m 351.02801,320.00159 a 38.385796,38.385796 0 1 1 -0.0371,-1.68738"
       sodipodi:start="0"
       sodipodi:end="6.2392129"
       sodipodi:open="true"
       transform="matrix(1.1395606,0,0,1.1395606,161.47922,1.0159287)" />
    <path
       sodipodi:type="arc"
       style="fill:#ffffff;fill-opacity:1;stroke:none"
       id="path3194"
       sodipodi:cx="416.07144"
       sodipodi:cy="531.29077"
       sodipodi:rx="26.785715"
       sodipodi:ry="26.785715"
       d="m 442.85716,531.29077 a 26.785715,26.785715 0 1 1 -0.0259,-1.17745"
       sodipodi:start="0"
       sodipodi:end="6.2392129"
       sodipodi:open="true"
       transform="translate(-21.428571,-31.428571)" />
  </g>
</svg>
